{
    "asset" : {
        "generator" : "Khronos glTF Blender I/O v3.2.43",
        "version" : "2.0"
    },
    "scene" : 0,
    "scenes" : [
        {
            "name" : "Scene",
            "nodes" : [
                0
            ]
        }
    ],
    "nodes" : [
        {
            "mesh" : 0,
            "name" : "Retopo_Sphere",
            "translation" : [
                0,
                4.966951370239258,
                0
            ]
        }
    ],
    "materials" : [
        {
            "doubleSided" : true,
            "name" : "artic blue",
            "pbrMetallicRoughness" : {
                "baseColorTexture" : {
                    "index" : 0
                },
                "metallicFactor" : 0,
                "roughnessFactor" : 0.699999988079071
            }
        },
        {
            "doubleSided" : true,
            "name" : "Material.001",
            "pbrMetallicRoughness" : {
                "baseColorFactor" : [
                    0.8000000715255737,
                    0.3440970182418823,
                    0.0425187349319458,
                    1
                ],
                "metallicFactor" : 0.26818183064460754,
                "roughnessFactor" : 0.6909090876579285
            }
        },
        {
            "doubleSided" : true,
            "name" : "Material.003",
            "pbrMetallicRoughness" : {
                "baseColorFactor" : [
                    0,
                    0,
                    0,
                    1
                ],
                "metallicFactor" : 0,
                "roughnessFactor" : 0.5
            }
        },
        {
            "doubleSided" : true,
            "emissiveFactor" : [
                1,
                1,
                0.05954020097851753
            ],
            "name" : "eye yellow",
            "pbrMetallicRoughness" : {
                "baseColorFactor" : [
                    0,
                    0,
                    0,
                    1
                ]
            }
        },
        {
            "doubleSided" : true,
            "emissiveFactor" : [
                1,
                0,
                0.2185080572962761
            ],
            "name" : "eye red",
            "pbrMetallicRoughness" : {
                "baseColorFactor" : [
                    0,
                    0,
                    0,
                    1
                ]
            }
        }
    ],
    "meshes" : [
        {
            "name" : "mesh",
            "primitives" : [
                {
                    "attributes" : {
                        "POSITION" : 0,
                        "NORMAL" : 1,
                        "TEXCOORD_0" : 2,
                        "TEXCOORD_1" : 3,
                        "COLOR_0" : 4
                    },
                    "indices" : 5,
                    "material" : 0
                },
                {
                    "attributes" : {
                        "POSITION" : 6,
                        "NORMAL" : 7,
                        "TEXCOORD_0" : 8,
                        "TEXCOORD_1" : 9,
                        "COLOR_0" : 10
                    },
                    "indices" : 11,
                    "material" : 1
                },
                {
                    "attributes" : {
                        "POSITION" : 12,
                        "NORMAL" : 13,
                        "TEXCOORD_0" : 14,
                        "TEXCOORD_1" : 15,
                        "COLOR_0" : 16
                    },
                    "indices" : 17,
                    "material" : 2
                },
                {
                    "attributes" : {
                        "POSITION" : 18,
                        "NORMAL" : 19,
                        "TEXCOORD_0" : 20,
                        "TEXCOORD_1" : 21,
                        "COLOR_0" : 22
                    },
                    "indices" : 23,
                    "material" : 3
                },
                {
                    "attributes" : {
                        "POSITION" : 24,
                        "NORMAL" : 25,
                        "TEXCOORD_0" : 26,
                        "TEXCOORD_1" : 27,
                        "COLOR_0" : 28
                    },
                    "indices" : 29,
                    "material" : 4
                }
            ]
        }
    ],
    "textures" : [
        {
            "sampler" : 0,
            "source" : 0
        }
    ],
    "images" : [
        {
            "bufferView" : 6,
            "mimeType" : "image/png",
            "name" : "body base"
        }
    ],
    "accessors" : [
        {
            "bufferView" : 0,
            "componentType" : 5126,
            "count" : 21020,
            "max" : [
                2.2125165462493896,
                1.1872243881225586,
                1.5218371152877808
            ],
            "min" : [
                -2.2134077548980713,
                -4.3542280197143555,
                -0.9620071053504944
            ],
            "type" : "VEC3"
        },
        {
            "bufferView" : 1,
            "componentType" : 5126,
            "count" : 21020,
            "type" : "VEC3"
        },
        {
            "bufferView" : 2,
            "componentType" : 5126,
            "count" : 21020,
            "type" : "VEC2"
        },
        {
            "bufferView" : 3,
            "componentType" : 5126,
            "count" : 21020,
            "type" : "VEC2"
        },
        {
            "bufferView" : 4,
            "componentType" : 5123,
            "count" : 21020,
            "normalized" : true,
            "type" : "VEC4"
        },
        {
            "bufferView" : 5,
            "componentType" : 5123,
            "count" : 123456,
            "type" : "SCALAR"
        },
        {
            "bufferView" : 7,
            "componentType" : 5126,
            "count" : 3565,
            "max" : [
                1.3603239059448242,
                0.27182045578956604,
                1.4120584726333618
            ],
            "min" : [
                -1.3603239059448242,
                -4.91689395904541,
                -0.30984368920326233
            ],
            "type" : "VEC3"
        },
        {
            "bufferView" : 8,
            "componentType" : 5126,
            "count" : 3565,
            "type" : "VEC3"
        },
        {
            "bufferView" : 9,
            "componentType" : 5126,
            "count" : 3565,
            "type" : "VEC2"
        },
        {
            "bufferView" : 10,
            "componentType" : 5126,
            "count" : 3565,
            "type" : "VEC2"
        },
        {
            "bufferView" : 11,
            "componentType" : 5123,
            "count" : 3565,
            "normalized" : true,
            "type" : "VEC4"
        },
        {
            "bufferView" : 12,
            "componentType" : 5123,
            "count" : 18816,
            "type" : "SCALAR"
        },
        {
            "bufferView" : 13,
            "componentType" : 5126,
            "count" : 658,
            "max" : [
                0.5267908573150635,
                0.6251698136329651,
                0.6909877061843872
            ],
            "min" : [
                -0.5267907977104187,
                0.20939041674137115,
                0.44254058599472046
            ],
            "type" : "VEC3"
        },
        {
            "bufferView" : 14,
            "componentType" : 5126,
            "count" : 658,
            "type" : "VEC3"
        },
        {
            "bufferView" : 15,
            "componentType" : 5126,
            "count" : 658,
            "type" : "VEC2"
        },
        {
            "bufferView" : 16,
            "componentType" : 5126,
            "count" : 658,
            "type" : "VEC2"
        },
        {
            "bufferView" : 17,
            "componentType" : 5123,
            "count" : 658,
            "normalized" : true,
            "type" : "VEC4"
        },
        {
            "bufferView" : 18,
            "componentType" : 5123,
            "count" : 3264,
            "type" : "SCALAR"
        },
        {
            "bufferView" : 19,
            "componentType" : 5126,
            "count" : 130,
            "max" : [
                0.35945841670036316,
                0.4578375518321991,
                0.8583201766014099
            ],
            "min" : [
                -0.35945838689804077,
                0.3767227232456207,
                0.8543255925178528
            ],
            "type" : "VEC3"
        },
        {
            "bufferView" : 20,
            "componentType" : 5126,
            "count" : 130,
            "type" : "VEC3"
        },
        {
            "bufferView" : 21,
            "componentType" : 5126,
            "count" : 130,
            "type" : "VEC2"
        },
        {
            "bufferView" : 22,
            "componentType" : 5126,
            "count" : 130,
            "type" : "VEC2"
        },
        {
            "bufferView" : 23,
            "componentType" : 5123,
            "count" : 130,
            "normalized" : true,
            "type" : "VEC4"
        },
        {
            "bufferView" : 24,
            "componentType" : 5123,
            "count" : 192,
            "type" : "SCALAR"
        },
        {
            "bufferView" : 25,
            "componentType" : 5126,
            "count" : 532,
            "max" : [
                0.5227963328361511,
                0.6211755275726318,
                0.8543256521224976
            ],
            "min" : [
                -0.5227963924407959,
                0.21338489651679993,
                0.6909876465797424
            ],
            "type" : "VEC3"
        },
        {
            "bufferView" : 26,
            "componentType" : 5126,
            "count" : 532,
            "type" : "VEC3"
        },
        {
            "bufferView" : 27,
            "componentType" : 5126,
            "count" : 532,
            "type" : "VEC2"
        },
        {
            "bufferView" : 28,
            "componentType" : 5126,
            "count" : 532,
            "type" : "VEC2"
        },
        {
            "bufferView" : 29,
            "componentType" : 5123,
            "count" : 532,
            "normalized" : true,
            "type" : "VEC4"
        },
        {
            "bufferView" : 30,
            "componentType" : 5123,
            "count" : 2304,
            "type" : "SCALAR"
        }
    ],
    "bufferViews" : [
        {
            "buffer" : 0,
            "byteLength" : 252240,
            "byteOffset" : 0
        },
        {
            "buffer" : 0,
            "byteLength" : 252240,
            "byteOffset" : 252240
        },
        {
            "buffer" : 0,
            "byteLength" : 168160,
            "byteOffset" : 504480
        },
        {
            "buffer" : 0,
            "byteLength" : 168160,
            "byteOffset" : 672640
        },
        {
            "buffer" : 0,
            "byteLength" : 168160,
            "byteOffset" : 840800
        },
        {
            "buffer" : 0,
            "byteLength" : 246912,
            "byteOffset" : 1008960
        },
        {
            "buffer" : 0,
            "byteLength" : 503596,
            "byteOffset" : 1255872
        },
        {
            "buffer" : 0,
            "byteLength" : 42780,
            "byteOffset" : 1759468
        },
        {
            "buffer" : 0,
            "byteLength" : 42780,
            "byteOffset" : 1802248
        },
        {
            "buffer" : 0,
            "byteLength" : 28520,
            "byteOffset" : 1845028
        },
        {
            "buffer" : 0,
            "byteLength" : 28520,
            "byteOffset" : 1873548
        },
        {
            "buffer" : 0,
            "byteLength" : 28520,
            "byteOffset" : 1902068
        },
        {
            "buffer" : 0,
            "byteLength" : 37632,
            "byteOffset" : 1930588
        },
        {
            "buffer" : 0,
            "byteLength" : 7896,
            "byteOffset" : 1968220
        },
        {
            "buffer" : 0,
            "byteLength" : 7896,
            "byteOffset" : 1976116
        },
        {
            "buffer" : 0,
            "byteLength" : 5264,
            "byteOffset" : 1984012
        },
        {
            "buffer" : 0,
            "byteLength" : 5264,
            "byteOffset" : 1989276
        },
        {
            "buffer" : 0,
            "byteLength" : 5264,
            "byteOffset" : 1994540
        },
        {
            "buffer" : 0,
            "byteLength" : 6528,
            "byteOffset" : 1999804
        },
        {
            "buffer" : 0,
            "byteLength" : 1560,
            "byteOffset" : 2006332
        },
        {
            "buffer" : 0,
            "byteLength" : 1560,
            "byteOffset" : 2007892
        },
        {
            "buffer" : 0,
            "byteLength" : 1040,
            "byteOffset" : 2009452
        },
        {
            "buffer" : 0,
            "byteLength" : 1040,
            "byteOffset" : 2010492
        },
        {
            "buffer" : 0,
            "byteLength" : 1040,
            "byteOffset" : 2011532
        },
        {
            "buffer" : 0,
            "byteLength" : 384,
            "byteOffset" : 2012572
        },
        {
            "buffer" : 0,
            "byteLength" : 6384,
            "byteOffset" : 2012956
        },
        {
            "buffer" : 0,
            "byteLength" : 6384,
            "byteOffset" : 2019340
        },
        {
            "buffer" : 0,
            "byteLength" : 4256,
            "byteOffset" : 2025724
        },
        {
            "buffer" : 0,
            "byteLength" : 4256,
            "byteOffset" : 2029980
        },
        {
            "buffer" : 0,
            "byteLength" : 4256,
            "byteOffset" : 2034236
        },
        {
            "buffer" : 0,
            "byteLength" : 4608,
            "byteOffset" : 2038492
        }
    ],
    "samplers" : [
        {
            "magFilter" : 9729,
            "minFilter" : 9987
        }
    ],
    "buffers" : [
        {
            "byteLength" : 2043100,
            "uri" : "data:application/octet-stream;base64,"
        }
    ]
}
